<?xml version="1.0" encoding="utf-8"?>
<!-- Generator: Adobe Illustrator 23.0.1, SVG Export Plug-In . SVG Version: 6.00 Build 0)  -->
<svg version="1.1"
	 id="svg367" xmlns:cc="http://creativecommons.org/ns#" xmlns:dc="http://purl.org/dc/elements/1.1/" xmlns:inkscape="http://www.inkscape.org/namespaces/inkscape" xmlns:rdf="http://www.w3.org/1999/02/22-rdf-syntax-ns#" xmlns:sodipodi="http://sodipodi.sourceforge.net/DTD/sodipodi-0.dtd" xmlns:svg="http://www.w3.org/2000/svg"
	 xmlns="http://www.w3.org/2000/svg" xmlns:xlink="http://www.w3.org/1999/xlink" x="0px" y="0px" viewBox="0 0 189 57"
	 style="enable-background:new 0 0 189 57;" xml:space="preserve">
<style type="text/css">
	.st0{fill:#050505;}
</style>
<sodipodi:namedview  bordercolor="#666666" borderopacity="1" gridtolerance="10" guidetolerance="10" id="namedview369" inkscape:current-layer="svg367" inkscape:cx="169.90237" inkscape:cy="122.4781" inkscape:pageopacity="0" inkscape:pageshadow="2" inkscape:window-height="1017" inkscape:window-maximized="1" inkscape:window-width="1920" inkscape:window-x="-8" inkscape:window-y="-8" inkscape:zoom="2.095941" objecttolerance="10" pagecolor="#ffffff" showgrid="false">
	</sodipodi:namedview>
<g>
	<path class="st0" d="M37.4,55.9c-0.1-0.9-1.1-2.2-3-2.2c-0.8,0-1.6,0.1-2.4,0.4c-2.4,0.7-5.3,2-8.5,2c-12.8,0-22.4-14-22.4-27.5
		C1.2,16.3,9.8,1,23.9,1c4.2,0,6.8,2.8,9,2.8c2,0,3-1.2,3.2-2.6h1v16.1h-0.9c-0.6-7.6-6-15.2-12.3-15.2c-14,0-14.6,19.5-14.6,26.5
		C9.3,36.7,9.9,55,23.6,55c7.4,0,13.8-6.5,13.8-16.6h1v17.6H37.4z"/>
	<path class="st0" d="M41,54.8v-1.1h4.6V3.3H41V2.2h15.2v1.1h-4.6v50.4h7.5c12.9,0,14.8-7,14.8-14.8h1v15.9H41z"/>
	<path class="st0" d="M112.9,3.3v34.2c0,10.5-4.5,18.5-15.7,18.5c-13.9,0-17.4-8.5-17.4-18.5V3.3h-4.2V2.2H90v1.1h-4.2v34.5
		c0,11.6,4.8,16.5,13.1,16.5c9.6,0,13-7.8,13-16.5V3.3h-4.2V2.2h9.6v1.1H112.9z"/>
	<path class="st0" d="M137.2,54.8h-18.4v-1.1h4.2V3.3h-4.2V2.2h14.8c8.8,0,16.8,3.7,16.8,12.5c0,6.2-6.1,11.5-12,12.1
		c8.6,0.6,15.8,5.8,15.8,14C154.2,47.9,148.5,54.8,137.2,54.8z M132.6,3.3h-3.5v22.9h5.9c4.9,0,8.8-2.7,8.8-11.3
		C143.8,6.7,139.8,3.3,132.6,3.3z M134.3,27.3h-5.2v26.4h6.2c6.8,0,12-2.9,12-12.8C147.3,29.7,141.5,27.3,134.3,27.3z"/>
	<path class="st0" d="M172.5,56.1c-2.7,0-4.8-0.7-6.6-1.6c-1.4-0.6-2.9-1.9-5.3-1.9c-1.9,0-2.9,1.9-3.2,3.3h-0.9V39.2h1
		c0,4.4,2.4,9.3,6.6,12.7c2.3,1.9,5.2,3,8.4,3c7.9,0,12.1-5.3,12.1-10.1c0-9-5.3-11.3-15.3-14c-7.3-2-11.9-7.2-11.9-14.7
		c0-9,6.7-15.2,13.6-15.2c6.2,0,8.5,3.9,10.7,3.9c2,0,2.3-2,2.4-2.8h0.9v14.7h-0.9c0-7-5.6-14.6-13.1-14.6c-5.4,0-10.2,3.8-10.2,9.9
		c0,5.9,4.3,9.9,13.2,12.4c9.2,2.6,14,5.6,14,15.2C188,46.4,184,56.1,172.5,56.1z"/>
</g>
</svg>
