<svg xmlns="http://www.w3.org/2000/svg" xmlns:xlink="http://www.w3.org/1999/xlink" width="400" height="70" viewBox="0 0 400 70">
    <defs>
        <path id="a" d="M.734 69.014h28.85V.13H.735z"/>
        <path id="c" d="M13.331 42.873V.257H1.129v42.616H13.33z"/>
    </defs>
    <g fill="none" fill-rule="evenodd">
        <path fill="#FFF" d="M117.979 40.797l6.431-18.693 6.25 18.693H117.98zm-69.315-8.175h-3.486V14.77h2.884c5.109 0 8.537 3.247 8.537 9.317 0 3.366-2.645 8.535-7.935 8.535zM9.679 40.797l6.431-18.693 6.25 18.693H9.68zM191.614 14.77v-1.563h-21.803v1.563h3.367v29.452l-20.196-31.015h-9.378v1.563h3.367v39.492h-5.731l-14.606-42.917-15.148 42.917h-5.545V14.77h3.368v-1.563h-8.898L89.233 45.605 77.51 13.207h-8.715v1.563h3.366v39.492h-6.669c-1.863-.06-3.486-1.683-3.486-4.512v-6.249c0-4.748-1.563-8.776-6.372-10.097 4.209-1.262 7.093-5.29 7.093-9.558 0-6.01-4.508-10.64-13.283-10.64H36.221v1.564h3.426v39.492H32.94L18.334 11.345 3.186 54.262H0v1.562h8.235v-1.562H4.93l4.207-11.903H22.84l4.028 11.903h-4.93v1.562h28.408v-1.562h-5.17V34.186h3.487c5.049 0 7.633 2.042 7.633 6.971v3.665c0 8.658 5.71 11.002 8.836 11.002H77.03v-1.562h-3.366V19.279L87.43 56.305l13.042-38.169v36.126h-3.366v1.562h19.43v-1.562h-3.306l4.208-11.903h13.704l4.027 11.903h-4.928v1.562h21.599v-1.562h-3.367V16.935l26.207 40.269V14.77h8.099v39.492h-3.365v1.562h12.2v-1.562h-3.365V14.77h3.365z"/>
        <g transform="translate(204.225 .279)">
            <mask id="b" fill="#fff">
                <use xlink:href="#a"/>
            </mask>
            <path fill="#FFF" d="M2.476 69.014H.734L27.843.13h1.742z" mask="url(#b)"/>
        </g>
        <path fill="#FFF" d="M263.741 14.776h-6.191v39.491h6.191c10.4 0 11.48-10.942 11.48-19.777 0-8.714-1.08-19.714-11.48-19.714m0 41.052h-14.966v-1.56h3.368V14.775h-3.368v-1.564h14.966c11.18 0 18.516 10.64 18.516 21.278 0 11.48-7.337 21.338-18.516 21.338M303.654 13.753c-10.582 0-11.362 14.125-11.362 20.797 0 6.731.6 20.737 11.362 20.737 10.758 0 11.417-14.066 11.417-20.737 0-6.672-.899-20.797-11.417-20.797m0 43.099c-10.641 0-18.516-11.482-18.516-22.302 0-9.857 7.275-22.36 18.516-22.36 10.638 0 18.512 12.442 18.512 22.36 0 11.48-7.874 22.302-18.512 22.302M322.998 55.828v-1.56h3.607V14.775h-3.607v-1.564h12.742v1.564h-3.607v39.491h5.531c10.097 0 11.538-5.17 11.538-11.665h1.444v13.226h-27.648zM381.842 56.73c-.121-.844-.783-1.803-2.044-1.803-2.464 0-5.047 1.924-8.656 1.924-10.458 0-18.211-11.42-18.211-22.301 0-9.858 6.911-22.36 18.452-22.36 3.427 0 5.47 2.285 7.213 2.285 1.383 0 2.043-.842 2.222-2.104h1.445v13.524h-1.384c-.48-6.311-4.747-12.141-9.496-12.141-10.818 0-11.36 15.086-11.36 20.796 0 6.672.602 20.738 11.12 20.738 5.65 0 10.639-4.988 10.639-13.224h1.442V56.73h-1.382z"/>
        <g transform="translate(385.915 12.955)">
            <mask id="d" fill="#fff">
                <use xlink:href="#c"/>
            </mask>
            <path fill="#FFF" d="M13.331 1.82H9.962v39.492h3.37v1.56H1.128v-1.56h3.367V1.821H1.13V.257H13.33z" mask="url(#d)"/>
        </g>
    </g>
</svg>
