<?xml version="1.0" encoding="UTF-8"?>
<svg width="61px" height="30px" viewBox="0 0 61 30" version="1.1" xmlns="http://www.w3.org/2000/svg" xmlns:xlink="http://www.w3.org/1999/xlink">
    <!-- Generator: Sketch 51.3 (57544) - http://www.bohemiancoding.com/sketch -->
    <title>EA7_LOGO_White</title>
    <desc>Created with Sketch.</desc>
    <defs></defs>
    <g id="Symbols" stroke="none" stroke-width="1" fill="none" fill-rule="evenodd">
        <g id="Voce-Menu-EA7" transform="translate(-61.000000, -20.000000)" fill="#000000">
            <g id="EA7_LOGO_White" transform="translate(61.000000, 20.000000)">
                <path d="M50.9748425,27.9399213 L51.8447244,25.3924016 L52.6861417,27.9399213 L50.9748425,27.9399213 Z M41.961378,26.9529921 L41.961378,24.6055512 L42.3685039,24.6055512 C43.0416142,24.6055512 43.4933858,25.043622 43.4933858,25.8354331 C43.4933858,26.2724409 43.1520472,26.9529921 42.4431496,26.9529921 L41.961378,26.9529921 Z M37.5579921,27.9399213 L38.4284646,25.3924016 L39.2691732,27.9399213 L37.5579921,27.9399213 Z M60.1357087,24.4941732 L57.5585433,24.4941732 L57.5585433,24.6055512 L57.9856299,24.6055512 L57.9856299,28.637126 L55.3640551,24.4941732 L54.2369291,24.4941732 L54.2369291,24.6055512 L54.662126,24.6055512 L54.662126,29.7035433 L53.9502756,29.7035433 L52.1245276,24.2579528 L50.2404331,29.7035433 L49.5683858,29.7035433 L49.5683858,24.6055512 L49.9570866,24.6055512 L49.9570866,24.4941732 L48.9400394,24.4941732 L47.4933071,28.7456693 L45.9747638,24.4941732 L44.9409449,24.4941732 L44.9409449,24.6055512 L45.3673228,24.6055512 L45.3673228,29.7035433 L44.585315,29.7035433 C44.3159055,29.7035433 44.0951575,29.4651969 44.0951575,29.0870079 L44.0951575,28.2966142 C44.0951575,27.6431102 43.8662598,27.1217717 43.138937,27.0111024 C43.7446063,26.9285433 44.1885827,26.3880709 44.1885827,25.8054331 C44.1885827,25.0644094 43.6394882,24.4941732 42.548622,24.4941732 L40.923189,24.4941732 L40.923189,24.6055512 L41.3477953,24.6055512 L41.3477953,29.7035433 L40.5337795,29.7035433 L38.7080315,24.2579528 L36.8231102,29.7035433 L36.4735039,29.7035433 L36.4735039,29.8162205 L37.4449606,29.8162205 L37.4449606,29.7035433 L36.9564567,29.7035433 L37.5198425,28.0525984 L39.3068504,28.0525984 L39.8524016,29.7035433 L39.1825984,29.7035433 L39.1825984,29.8162205 L42.6179528,29.8162205 L42.6201969,29.7035433 L41.961378,29.7035433 L41.961378,27.0654331 L42.4431496,27.0654331 C43.1050394,27.0654331 43.4526378,27.3346063 43.4526378,27.9954331 L43.4526378,28.4593701 C43.4526378,29.5524803 44.1570472,29.8162205 44.532874,29.8162205 L45.9424016,29.8162205 L45.9424016,29.7035433 L45.4791732,29.7035433 L45.4791732,24.986811 L47.2638189,29.8723228 L48.9551575,24.8278346 L48.9551575,29.7035433 L48.5301969,29.7035433 L48.5301969,29.8162205 L50.8612205,29.8162205 L50.8612205,29.7035433 L50.3717717,29.7035433 L50.9364567,28.0525984 L52.7226378,28.0525984 L53.2687795,29.7035433 L52.5998031,29.7035433 L52.5998031,29.8162205 L55.2018898,29.8162205 L55.2018898,29.7035433 L54.7739764,29.7035433 L54.7739764,24.7822441 L58.0966535,30 L58.0966535,24.6055512 L59.0971654,24.6055512 L59.0971654,29.7035433 L58.6704331,29.7035433 L58.6704331,29.8162205 L60.1357087,29.8162205 L60.1357087,29.7035433 L59.7100394,29.7035433 L59.7100394,24.6055512 L60.1357087,24.6055512 L60.1357087,24.4941732 Z" id="Fill-1"></path>
                <path d="M2.32488189,24.6055512 C3.22901575,24.6055512 3.45389764,25.1284252 3.45389764,25.8765354 L3.55877953,25.8765354 L3.55877953,24.4941732 L0.000118110236,24.4941732 L0.000118110236,24.6055512 L0.463818898,24.6055512 L0.463818898,29.7038976 L0.000118110236,29.7038976 L0.000118110236,29.8162205 L3.55877953,29.8162205 L3.55877953,28.2838583 L3.45389764,28.2838583 C3.45389764,29.0756693 3.26102362,29.7038976 1.95566929,29.7038976 L1.07669291,29.7038976 L1.07669291,27.184252 L1.45476378,27.184252 C2.03988189,27.184252 2.31814961,27.486378 2.31814961,27.9999213 L2.42220472,27.9999213 L2.42220472,26.2577953 L2.31814961,26.2577953 C2.31814961,26.7783071 2.03988189,27.0732283 1.45476378,27.0732283 L1.07669291,27.0732283 L1.07669291,24.6055512 L2.32488189,24.6055512" id="Fill-2"></path>
                <path d="M25.5190157,29.8387795 C24.1038189,29.8387795 24.0347244,27.9907087 24.0347244,27.1583858 C24.0347244,26.3326772 24.1288583,24.4782283 25.5190157,24.4782283 C26.9055118,24.4782283 27.0106299,26.3330315 27.0106299,27.1583858 C27.0106299,27.9851575 26.9307874,29.8387795 25.5190157,29.8387795 M25.5190157,24.3651969 C24.1266142,24.3651969 23.2119685,25.9152756 23.2119685,27.1583858 C23.2119685,28.5155906 24.2020866,29.9435433 25.5190157,29.9435433 C26.8354724,29.9435433 27.8247638,28.6025197 27.8247638,27.1583858 C27.8247638,25.9152756 26.8358268,24.3651969 25.5190157,24.3651969" id="Fill-3"></path>
                <path d="M15.028937,29.8387795 C13.6144488,29.8387795 13.545,27.9907087 13.545,27.1583858 C13.545,26.3326772 13.6394882,24.4782283 15.028937,24.4782283 C16.4160236,24.4782283 16.5201969,26.3330315 16.5201969,27.1583858 C16.5201969,27.9851575 16.441063,29.8387795 15.028937,29.8387795 M15.028937,24.3651969 C13.6367717,24.3651969 12.7230709,25.9152756 12.7230709,27.1583858 C12.7230709,28.5155906 13.7123622,29.9435433 15.028937,29.9435433 C16.345748,29.9435433 17.3353937,28.6025197 17.3353937,27.1583858 C17.3353937,25.9152756 16.3461024,24.3651969 15.028937,24.3651969" id="Fill-4"></path>
                <path d="M18.5723622,26.9529921 L18.5723622,24.6055512 L18.979252,24.6055512 C19.653189,24.6055512 20.1048425,25.043622 20.1048425,25.8354331 C20.1048425,26.2724409 19.7635039,26.9529921 19.0544882,26.9529921 L18.5723622,26.9529921 Z M21.5508661,24.6055512 L21.977126,24.6055512 L21.977126,29.7035433 L21.196063,29.7035433 C20.927126,29.7035433 20.7073228,29.4651969 20.7073228,29.0870079 L20.7073228,28.2966142 C20.7073228,27.6431102 20.4780709,27.1217717 19.7495669,27.0111024 C20.3558268,26.9285433 20.8002756,26.3880709 20.8002756,25.8054331 C20.8002756,25.0647638 20.2505906,24.4941732 19.1588976,24.4941732 L17.5346457,24.4941732 L17.5346457,24.6055512 L17.9590157,24.6055512 L17.9590157,29.7035433 L17.5346457,29.7035433 L17.5346457,29.8162205 L19.2303543,29.8162205 L19.2303543,29.7035433 L18.5723622,29.7035433 L18.5723622,27.0654331 L19.0544882,27.0654331 C19.7164961,27.0654331 20.0638583,27.3259843 20.0638583,27.9954331 L20.0638583,28.4593701 C20.0638583,29.5687795 20.7679134,29.8162205 21.1442126,29.8162205 L23.0157874,29.8162205 L23.0157874,29.7035433 L22.5895276,29.7035433 L22.5895276,24.6055512 L23.0157874,24.6055512 L23.0157874,24.4941732 L21.5508661,24.4941732 L21.5508661,24.6055512 Z" id="Fill-5"></path>
                <path d="M10.4272441,27.499252 L10.1169685,27.499252 L10.1169685,24.6051969 L10.4272441,24.6051969 C11.1974409,24.6051969 11.679685,25.0033465 11.679685,26.0663386 C11.679685,27.0272835 11.3092913,27.499252 10.4272441,27.499252 Z M8.49047244,29.7038976 L9.49641732,29.7038976 L9.49641732,24.6051969 L8.49047244,24.6051969 L8.49047244,29.7038976 Z M10.5765354,24.4941732 L7.86259843,24.4941732 L6.4153937,28.7456693 L4.89755906,24.4941732 L3.86338583,24.4941732 L3.86338583,24.6051969 L4.28917323,24.6051969 L4.28917323,29.7038976 L3.86338583,29.7038976 L3.86338583,29.8162205 L4.86484252,29.8162205 L4.86484252,29.7038976 L4.40066929,29.7038976 L4.40066929,24.986811 L6.18543307,29.8723228 L7.87807087,24.8278346 L7.87807087,29.7038976 L7.45181102,29.7038976 L7.45181102,29.8162205 L10.542874,29.8162205 L10.542874,29.7038976 L10.1169685,29.7038976 L10.1169685,27.610748 L10.5765354,27.610748 C11.7930709,27.610748 12.3819685,26.9342126 12.3819685,26.0663386 C12.3819685,25.2311811 11.8637008,24.4941732 10.5765354,24.4941732 Z" id="Fill-6"></path>
                <path d="M33.3230315,25.1370472 C33.3572835,25.0067717 33.4570866,25.0105512 33.6076772,25.0105512 L33.9807874,25.0105512 C33.9493701,24.6925984 33.5897244,24.4941732 33.4398425,24.4941732 L31.9575591,24.4929921 C31.9322835,24.4929921 31.9188189,24.5114173 31.9078346,24.5310236 C31.8983858,24.5456693 31.7273622,24.7947638 31.7311417,25.1205118 L31.7316142,25.1370472 L33.3230315,25.1370472" id="Fill-7"></path>
                <path d="M29.8217717,24.496063 L27.1556693,24.496063 C27.1487008,24.5310236 27.1456299,24.5653937 27.1456299,24.5984646 C27.1456299,24.9543307 27.5255906,25.1370472 27.5255906,25.1370472 L30.358937,25.1370472 L29.8217717,24.496063" id="Fill-8"></path>
                <path d="M30.6044882,25.4316142 L27.9395669,25.4316142 C27.9317717,25.4670472 27.9287008,25.5012992 27.9287008,25.5344882 C27.9287008,25.8904724 28.3094882,26.0735433 28.3094882,26.0735433 L31.1427165,26.0735433 L30.6044882,25.4316142" id="Fill-9"></path>
                <path d="M38.2228346,24.496063 L35.5560236,24.496063 L35.0185039,25.1370472 L37.8529134,25.1370472 C37.8529134,25.1370472 38.2329921,24.9543307 38.2329921,24.5984646 C38.2329921,24.5653937 38.2299213,24.5310236 38.2228346,24.496063" id="Fill-10"></path>
                <path d="M34.7738976,25.4316142 L34.2349606,26.0735433 L37.0686614,26.0735433 C37.0686614,26.0735433 37.4495669,25.8904724 37.4495669,25.5344882 C37.4495669,25.5012992 37.4457874,25.4670472 37.4394094,25.4316142 L34.7738976,25.4316142" id="Fill-11"></path>
                <path d="M29.506063,27.3029528 C29.4987402,27.3383858 29.4951969,27.3719291 29.4951969,27.4047638 C29.4951969,27.761811 29.8759843,27.9440551 29.8759843,27.9440551 L31.2022441,27.9440551 C31.3340551,27.6902362 31.5676772,27.4803543 31.8947244,27.4803543 C32.0069291,27.4803543 32.0799213,27.5187402 32.1327165,27.5470866 C32.1640157,27.5632677 32.1884646,27.5764961 32.2101969,27.5764961 C32.2697244,27.5764961 32.2984252,27.5524016 32.3085827,27.4954724 L32.3092913,27.4875591 L32.3827559,27.4875591 L32.3827559,27.9440551 L33.188622,27.9440551 C33.2872441,27.6635433 33.362126,27.4502362 33.362126,27.4502362 L33.3712205,27.4261417 C33.3712205,27.4261417 33.4472835,27.6510236 33.5472047,27.9440551 L35.5027559,27.9440551 C35.5027559,27.9440551 35.8829528,27.761811 35.8829528,27.4047638 C35.8829528,27.3719291 35.8798819,27.3383858 35.8726772,27.3029528 L29.506063,27.3029528" id="Fill-12"></path>
                <path d="M31.8961417,27.5624409 C31.6358268,27.5624409 31.5119291,27.7414961 31.4524016,27.9440551 L32.2840157,27.9440551 C32.2163386,27.6823228 32.0482677,27.5624409 31.8961417,27.5624409" id="Fill-13"></path>
                <path d="M31.3974803,28.4390551 C31.3974803,28.6119685 31.4109449,28.7587795 31.4370472,28.8801969 L32.209252,28.8801969 L32.209252,28.643622 L32.0408268,28.643622 L32.0408268,28.5603543 L32.6020866,28.5603543 L32.6020866,28.643622 L32.458937,28.643622 L32.458937,28.8801969 L32.859685,28.8801969 C32.9252362,28.691811 33.0073228,28.4600787 33.0850394,28.2382677 L31.4037402,28.2382677 C31.3974803,28.3201181 31.3974803,28.3908661 31.3974803,28.4390551" id="Fill-14"></path>
                <path d="M34.719685,28.8797244 C34.719685,28.8797244 35.1001181,28.697126 35.1001181,28.3410236 C35.1001181,28.3079528 35.0971654,28.2737008 35.090315,28.2382677 L33.6468898,28.2382677 C33.7230709,28.4609055 33.8022047,28.6929921 33.8662205,28.8797244 L34.719685,28.8797244" id="Fill-15"></path>
                <path d="M31.0990157,28.2382677 L30.2886614,28.2382677 C30.2816929,28.2737008 30.2787402,28.3079528 30.2787402,28.3406693 C30.2787402,28.697126 30.6584646,28.8797244 30.6584646,28.8797244 L31.1793307,28.8797244 C31.1125984,28.7339764 31.0764567,28.5768898 31.0764567,28.4394094 C31.0764567,28.375748 31.0843701,28.3067717 31.0990157,28.2382677" id="Fill-16"></path>
                <path d="M31.8618898,29.3147244 C31.9861417,29.3147244 32.0811024,29.2572047 32.1402756,29.1747638 L31.5623622,29.1747638 C31.6366535,29.269252 31.7364567,29.3147244 31.8618898,29.3147244" id="Fill-17"></path>
                <path d="M34.1983465,29.269252 L34.1983465,29.3516929 L33.506811,29.3516929 L33.506811,29.269252 L33.7225984,29.269252 C33.7207087,29.2632283 33.7083071,29.2255512 33.6909449,29.1747638 L32.8484646,29.1747638 C32.8302756,29.2255512 32.8166929,29.2632283 32.8145669,29.269252 L32.9704724,29.269252 L32.9704724,29.3516929 L32.5937008,29.3516929 L32.5937008,29.269252 L32.7225591,29.269252 C32.7232677,29.2677165 32.7354331,29.2331102 32.755748,29.1747638 L32.4592913,29.1747638 L32.4592913,29.3516929 L32.3768504,29.3516929 L32.375315,29.3438976 C32.3708268,29.2820079 32.3390551,29.2417323 32.2984252,29.2417323 C32.2321654,29.2417323 32.1914173,29.2700787 32.1440551,29.3027953 C32.080748,29.3461417 32.0095276,29.3950394 31.8618898,29.3950394 C31.6679528,29.3950394 31.5040157,29.3061024 31.3771654,29.1747638 L31.0724409,29.1747638 C31.0659449,29.2105512 31.0621654,29.2439764 31.0621654,29.2771654 C31.0621654,29.6335039 31.4425984,29.8162205 31.4425984,29.8162205 L33.9362598,29.8162205 C33.9362598,29.8162205 34.3159843,29.6335039 34.3159843,29.2771654 C34.3159843,29.2439764 34.3120866,29.2105512 34.306063,29.1747638 L33.9656693,29.1747638 C33.9852756,29.2331102 33.9975591,29.2677165 33.9975591,29.269252 L34.1983465,29.269252" id="Fill-18"></path>
                <polyline id="Fill-19" points="33.2130709 25.4305512 31.7304331 25.4305512 31.7048031 26.0715354 33.3946063 26.0715354 33.2130709 25.4305512"></polyline>
                <path d="M33.9904724,26.3669291 L33.7358268,26.673189 L33.4782283,26.3669291 L31.6908661,26.3669291 L31.6452756,26.6714173 L31.3869685,26.3669291 L28.7224016,26.3669291 C28.7150787,26.4023622 28.7115354,26.4362598 28.7115354,26.4690945 C28.7115354,26.825315 29.0919685,27.0080315 29.0919685,27.0080315 L36.2874803,27.0080315 C36.2874803,27.0080315 36.6679134,26.825315 36.6679134,26.4690945 C36.6679134,26.4362598 36.6641339,26.4023622 36.6570472,26.3669291 L33.9904724,26.3669291" id="Fill-20"></path>
                <polyline id="Fill-21" points="33.3779528 28.2382677 33.1723228 28.2382677 33.0336614 28.6432677 33.512126 28.6432677 33.3779528 28.2382677"></polyline>
                <polyline id="Fill-22" points="33.0050787 28.7245276 32.9512205 28.8797244 33.5923228 28.8797244 33.5407087 28.7245276 33.0050787 28.7245276"></polyline>
                <g id="Group-26">
                    <path d="M2.68311024,19.4428346 L15.9957874,19.4428346 C16.7587795,19.4428346 17.3076378,19.8383858 17.3076378,20.6916142 C17.3076378,21.5454331 16.7587795,21.9427559 15.9957874,21.9427559 L1.43267717,21.9427559 C0.426141732,21.9427559 0,21.3022441 0,20.4791339 L0,1.69866142 C0,0.876732283 0.426141732,0.235984252 1.43267717,0.235984252 L15.9957874,0.235984252 C16.7587795,0.235984252 17.3076378,0.633070866 17.3076378,1.48582677 C17.3076378,2.33940945 16.7587795,2.73602362 15.9957874,2.73602362 L2.68311024,2.73602362 L2.68311024,9.83940945 L15.4176378,9.83940945 C16.1801575,9.83940945 16.7274803,10.2356693 16.7274803,11.089252 C16.7274803,11.942126 16.1801575,12.3394488 15.4176378,12.3394488 L2.68311024,12.3394488 L2.68311024,19.4428346" id="Fill-23"></path>
                    <path d="M39.5118898,19.6281496 L31.4042126,1.55031496 C31.0244882,0.658228346 30.4608661,0.00661417323 29.4895276,0.0213779528 L29.423622,0.0205511811 C28.4899606,0.034488189 27.9412205,0.676771654 27.5694094,1.55031496 L19.4627953,19.6281496 C19.3520079,19.8944882 19.0264961,20.5732677 18.9994488,20.9379921 C18.9474803,21.6376772 19.4948031,22.1055118 20.1941339,22.1564173 C20.9242913,22.2095669 21.320315,21.8114173 21.575315,21.2489764 L24.5311417,14.5991339 L24.5349213,14.5877953 L34.5069685,14.5991339 L37.3990157,21.2489764 C37.6548425,21.8114173 38.0511024,22.2095669 38.7806693,22.1564173 C39.4794094,22.1055118 40.026378,21.6376772 39.9752362,20.9379921 C39.9479528,20.5732677 39.6240945,19.8944882 39.5118898,19.6281496 M25.5245669,12.3484252 L29.371063,3.12625984 C29.371063,3.12625984 29.4207874,3.03177165 29.4895276,3.03177165 C29.5562598,3.03177165 29.6076378,3.12625984 29.6076378,3.12625984 L33.5174409,12.3484252 L25.5245669,12.3484252" id="Fill-25"></path>
                </g>
                <polyline id="Fill-27" points="60.012874 0.0349606299 40.9032283 0.0349606299 40.021063 2.00267717 59.1424016 2.00267717 60.012874 0.0349606299"></polyline>
                <polyline id="Fill-28" points="58.5630709 3.31275591 39.4341732 3.31275591 38.5177559 5.35771654 57.6585827 5.35771654 58.5630709 3.31275591"></polyline>
                <polyline id="Fill-29" points="57.0788976 6.66814961 49.9556693 6.66814961 49.0688976 8.71322835 56.1745276 8.71322835 57.0788976 6.66814961"></polyline>
                <polyline id="Fill-30" points="55.595315 10.0236614 48.5012598 10.0236614 47.6144882 12.0689764 54.6903543 12.0689764 55.595315 10.0236614"></polyline>
                <polyline id="Fill-31" points="54.1111417 13.3791732 47.0469685 13.3791732 46.1605512 15.4241339 53.2062992 15.4241339 54.1111417 13.3791732"></polyline>
                <polyline id="Fill-32" points="52.6269685 16.7345669 45.5920866 16.7345669 44.7057874 18.7798819 51.7222441 18.7798819 52.6269685 16.7345669"></polyline>
                <polyline id="Fill-33" points="51.1429134 20.0896063 44.1382677 20.0896063 43.2514961 22.1345669 50.2384252 22.1345669 51.1429134 20.0896063"></polyline>
            </g>
        </g>
    </g>
</svg>