<?xml version="1.0" encoding="UTF-8" standalone="no"?>
<svg
   xmlns:dc="http://purl.org/dc/elements/1.1/"
   xmlns:cc="http://creativecommons.org/ns#"
   xmlns:rdf="http://www.w3.org/1999/02/22-rdf-syntax-ns#"
   xmlns:svg="http://www.w3.org/2000/svg"
   xmlns="http://www.w3.org/2000/svg"
   xmlns:sodipodi="http://sodipodi.sourceforge.net/DTD/sodipodi-0.dtd"
   xmlns:inkscape="http://www.inkscape.org/namespaces/inkscape"
   width="247.82001"
   height="56.971001"
   viewBox="0 0 247.82001 56.971"
   version="1.1"
   id="svg367"
   sodipodi:docname="hotels.svg"
   inkscape:version="0.92.3 (2405546, 2018-03-11)">
  <metadata
     id="metadata371">
    <rdf:RDF>
      <cc:Work
         rdf:about="">
        <dc:format>image/svg+xml</dc:format>
        <dc:type
           rdf:resource="http://purl.org/dc/dcmitype/StillImage" />
        <dc:title></dc:title>
      </cc:Work>
    </rdf:RDF>
  </metadata>
  <sodipodi:namedview
     pagecolor="#ffffff"
     bordercolor="#666666"
     borderopacity="1"
     objecttolerance="10"
     gridtolerance="10"
     guidetolerance="10"
     inkscape:pageopacity="0"
     inkscape:pageshadow="2"
     inkscape:window-width="1920"
     inkscape:window-height="1017"
     id="namedview369"
     showgrid="false"
     inkscape:zoom="2.095941"
     inkscape:cx="169.90237"
     inkscape:cy="122.4781"
     inkscape:window-x="-8"
     inkscape:window-y="-8"
     inkscape:window-maximized="1"
     inkscape:current-layer="svg367" />
  <defs
     id="defs354">
    <path
       id="a"
       d="M 0.532,59.953 H 248.23 V 0.52 H 0.532 v 59.434 z"
       inkscape:connector-curvature="0" />
    <path
       d="M 0.532,59.953 H 248.23 V 0.52 H 0.532 v 59.434 z"
       id="a-7"
       inkscape:connector-curvature="0" />
    <path
       d="M 0.532,59.953 H 248.23 V 0.52 H 0.532 v 59.434 z"
       id="a-4"
       inkscape:connector-curvature="0" />
    <style
       id="style3934">.cls-1{fill:#1d1d1b;}</style>
  </defs>
  <g
     id="Symbols"
     style="fill:none;fill-rule:evenodd;stroke:none;stroke-width:1"
     transform="matrix(3.1948744,0,0,3.1948744,-0.58055,-1.4334278)">
    <g
       transform="translate(-2,-1)"
       id="HOTELS"
       style="fill:#000000">
      <path
         id="path572"
         d="m 15.704,19 h -5.208 v -0.36 h 1.896 v -8.16 h -6.72 v 8.16 h 1.92 V 19 H 2.36 V 18.64 H 3.704 V 2.344 H 2.36 v -0.36 h 5.232 v 0.36 h -1.92 v 7.776 h 6.72 V 2.344 h -1.896 v -0.36 h 5.208 v 0.36 H 14.336 V 18.64 h 1.368 z M 31.4,10.504 c 0,4.608 -3.144,8.904 -7.368,8.904 -4.2,0 -7.368,-4.56 -7.368,-8.904 0,-3.984 2.928,-8.928 7.368,-8.928 4.224,0 7.368,4.944 7.368,8.928 z m -2.592,0 c 0,-2.64 -0.336,-8.568 -4.776,-8.568 -4.44,0 -4.728,5.928 -4.728,8.568 0,2.664 0.216,8.544 4.728,8.544 4.512,0 4.776,-5.904 4.776,-8.544 z M 44.96,7.144 h -0.336 c 0,-3.168 -0.576,-4.8 -4.32,-4.8 H 39.608 V 18.64 h 1.488 V 19 H 36.152 V 18.64 H 37.64 V 2.344 h -0.672 c -3.048,0 -4.344,1.632 -4.344,4.8 H 32.288 V 1.984 H 44.96 Z M 56.984,6.4 h -0.336 c 0,-2.376 -0.72,-4.056 -3.6,-4.056 H 49.04 v 7.896 h 1.224 c 1.872,0 2.76,-0.96 2.76,-2.616 h 0.336 v 5.568 h -0.336 c 0,-1.632 -0.888,-2.616 -2.76,-2.616 H 49.04 v 8.064 h 2.808 c 4.2,0 4.8,-2.016 4.8,-4.536 h 0.336 V 19 H 45.608 v -0.36 h 1.488 V 2.344 H 45.608 V 1.984 H 56.984 Z M 68.888,19 H 57.92 v -0.36 h 1.488 V 2.344 H 57.92 v -0.36 h 4.92 v 0.36 H 61.352 V 18.64 h 2.424 c 4.176,0 4.776,-2.256 4.776,-4.776 h 0.336 z m 11.04,-4.92 c 0,2.184 -1.296,5.328 -5.016,5.328 -0.864,0 -1.56,-0.24 -2.136,-0.504 -0.456,-0.192 -0.936,-0.624 -1.704,-0.624 -0.6,0 -0.936,0.624 -1.032,1.08 h -0.288 v -5.4 h 0.312 c 0,1.416 0.792,3 2.136,4.104 0.744,0.6 1.68,0.984 2.712,0.984 2.544,0 3.912,-1.728 3.912,-3.264 0,-2.904 -1.728,-3.672 -4.944,-4.536 C 71.504,10.6 70.04,8.92 70.04,6.496 c 0,-2.928 2.16,-4.92 4.392,-4.92 1.992,0 2.76,1.248 3.456,1.248 0.648,0 0.744,-0.648 0.792,-0.912 h 0.288 V 6.664 H 78.68 c 0,-2.28 -1.824,-4.728 -4.248,-4.728 -1.752,0 -3.312,1.224 -3.312,3.216 0,1.92 1.392,3.216 4.272,4.008 2.976,0.84 4.536,1.8 4.536,4.92 z"
         inkscape:connector-curvature="0" />
    </g>
  </g>
</svg>
