<?xml version="1.0" encoding="utf-8"?>
<!-- Generator: Adobe Illustrator 20.0.0, SVG Export Plug-In . SVG Version: 6.00 Build 0)  -->
<svg version="1.1" id="Livello_1" xmlns="http://www.w3.org/2000/svg" xmlns:xlink="http://www.w3.org/1999/xlink" x="0px" y="0px"
	 viewBox="0 0 285.9 51.7" style="enable-background:new 0 0 285.9 51.7;" xml:space="preserve">
<g>
	<path d="M1.2,48.9v-1.7H5V3.6H1.2V1.9h13.7v1.7h-3.8v43.6h6.1c11.2,0,12.7-5.7,12.7-12.9h1.6v14.6H1.2z"/>
	<path d="M47,3.6h-3.8v43.6H47v1.7H33.4v-1.7h3.8V3.6h-3.8V1.9H47V3.6z"/>
	<path d="M78.7,14.4c0-6.7-1.8-10.8-9.5-10.8H58.8v20.7h2.9c5,0,7.1-2.5,7.1-7.1h1.7v15.9h-1.7c0-4.4-2.1-7.1-7.1-7.1h-2.9v21.2h3.8
		v1.7H49v-1.7h3.8V3.6H49V1.9h31.3v12.5H78.7z"/>
	<path d="M111.8,14.4c0-6.7-1.8-10.8-9.5-10.8H91.9v20.7h2.9c5,0,7.1-2.5,7.1-7.1h1.7v15.9H102c0-4.4-2.1-7.1-7.1-7.1h-2.9v21.2H99
		c11,0,12.7-5.1,12.7-12.1h1.7v13.9H82.1v-1.7h3.8V3.6h-3.8V1.9h31.3v12.5H111.8z"/>
	<path d="M130.4,50c-5.3,0-7.7-3.1-10.3-3.1c-1.5,0-2.3,1.5-2.7,3H116V34.6h1.6c0,4.4,2.9,9.7,7.3,12.2c1.7,0.9,3.6,1.5,5.5,1.5
		c6.8,0,10.3-4.6,10.3-8.5c0-7.6-4.4-9.6-13.2-12c-6.6-1.8-10.7-6.5-10.7-13.3c0-8.2,6-13.8,12.3-13.8c5.5,0,7.7,3.4,9.4,3.4
		c1.5,0,1.7-1.3,1.9-2.5h1.5v13.6h-1.5c0-6.4-4.8-12.8-11.2-12.8c-4.6,0-8.7,3.2-8.7,8.4c0,4.9,3.6,8.4,11.4,10.5
		c8.2,2.3,12.7,5,12.7,13.8C144.5,41.2,140.8,50,130.4,50z"/>
	<path d="M178.4,16.6c0-8.9-1.5-13-11.5-13h-1.5v43.6h4.1v1.7h-14.3v-1.7h4.1V3.6h-1.5c-8,0-11.4,4.1-11.4,13h-1.7V1.9H180v14.7
		H178.4z"/>
	<path d="M215.7,3.6l-11.5,24.4v19.2h4.1v1.7h-14.3v-1.7h4.1V28.5L185.8,3.6h-4.7V1.9h16.3v1.7h-4.5l10.7,21.9L214,3.6h-4.2V1.9
		h10.2v1.7H215.7z"/>
	<path d="M221.2,48.9v-1.7h3.8V3.6h-3.8V1.9h13.7v1.7H231v43.6h6.1c11.2,0,12.7-5.7,12.7-12.9h1.6v14.6H221.2z"/>
	<path d="M283,14.4c0-6.7-1.8-10.8-9.5-10.8h-10.4v20.7h2.9c5,0,7.1-2.5,7.1-7.1h1.7v15.9h-1.7c0-4.4-2.1-7.1-7.1-7.1h-2.9v21.2h7.1
		c11,0,12.7-5.1,12.7-12.1h1.7v13.9h-31.3v-1.7h3.8V3.6h-3.8V1.9h31.3v12.5H283z"/>
</g>
</svg>
